<mxfile host="app.diagrams.net" modified="2023-12-15T15:52:45.640Z" agent="Mozilla/5.0 (Windows NT 10.0; Win64; x64) AppleWebKit/537.36 (KHTML, like Gecko) Chrome/120.0.0.0 Safari/537.36" etag="MFj4LkYLxbbzILKdrByg" version="22.1.9" type="device">
  <diagram id="R2lEEEUBdFMjLlhIrx00" name="Page-1">
    <mxGraphModel dx="2284" dy="780" grid="1" gridSize="10" guides="1" tooltips="1" connect="1" arrows="1" fold="1" page="1" pageScale="1" pageWidth="850" pageHeight="1100" math="0" shadow="0" extFonts="Permanent Marker^https://fonts.googleapis.com/css?family=Permanent+Marker">
      <root>
        <mxCell id="0" />
        <mxCell id="1" parent="0" />
        <mxCell id="ew4b3XNnfiUMwKwyRIX6-1" value="Equipo" style="whiteSpace=wrap;html=1;align=center;fillColor=#97D077;" parent="1" vertex="1">
          <mxGeometry x="180" y="480" width="100" height="40" as="geometry" />
        </mxCell>
        <mxCell id="ew4b3XNnfiUMwKwyRIX6-3" value="Estadística de Partido" style="whiteSpace=wrap;html=1;align=center;fillColor=#97D077;" parent="1" vertex="1">
          <mxGeometry x="690" y="840" width="100" height="40" as="geometry" />
        </mxCell>
        <mxCell id="ew4b3XNnfiUMwKwyRIX6-4" value="Jugador" style="whiteSpace=wrap;html=1;align=center;fillColor=#97D077;" parent="1" vertex="1">
          <mxGeometry x="-330" y="480" width="100" height="40" as="geometry" />
        </mxCell>
        <mxCell id="ew4b3XNnfiUMwKwyRIX6-5" value="Partido" style="whiteSpace=wrap;html=1;align=center;fillColor=#97D077;" parent="1" vertex="1">
          <mxGeometry x="690" y="480" width="100" height="40" as="geometry" />
        </mxCell>
        <mxCell id="ew4b3XNnfiUMwKwyRIX6-6" value="Grupo" style="whiteSpace=wrap;html=1;align=center;fillColor=#97D077;" parent="1" vertex="1">
          <mxGeometry x="180" y="120" width="100" height="40" as="geometry" />
        </mxCell>
        <mxCell id="ew4b3XNnfiUMwKwyRIX6-7" value="Árbitro" style="whiteSpace=wrap;html=1;align=center;fillColor=#97D077;" parent="1" vertex="1">
          <mxGeometry x="690" y="120" width="100" height="40" as="geometry" />
        </mxCell>
        <mxCell id="ew4b3XNnfiUMwKwyRIX6-8" value="Fase" style="whiteSpace=wrap;html=1;align=center;fillColor=#97D077;" parent="1" vertex="1">
          <mxGeometry x="1190" y="480" width="100" height="40" as="geometry" />
        </mxCell>
        <mxCell id="ew4b3XNnfiUMwKwyRIX6-10" value="Compone" style="shape=rhombus;perimeter=rhombusPerimeter;whiteSpace=wrap;html=1;align=center;fillColor=#EA6B66;" parent="1" vertex="1">
          <mxGeometry x="-85" y="470" width="120" height="60" as="geometry" />
        </mxCell>
        <mxCell id="ew4b3XNnfiUMwKwyRIX6-12" value="Pertenece" style="shape=rhombus;perimeter=rhombusPerimeter;whiteSpace=wrap;html=1;align=center;fillColor=#EA6B66;" parent="1" vertex="1">
          <mxGeometry x="930" y="470" width="120" height="60" as="geometry" />
        </mxCell>
        <mxCell id="ew4b3XNnfiUMwKwyRIX6-13" value="Tiene" style="shape=rhombus;perimeter=rhombusPerimeter;whiteSpace=wrap;html=1;align=center;fillColor=#EA6B66;" parent="1" vertex="1">
          <mxGeometry x="680" y="650" width="120" height="60" as="geometry" />
        </mxCell>
        <mxCell id="ew4b3XNnfiUMwKwyRIX6-17" value="Arbitra" style="shape=rhombus;perimeter=rhombusPerimeter;whiteSpace=wrap;html=1;align=center;fillColor=#EA6B66;" parent="1" vertex="1">
          <mxGeometry x="680" y="290" width="120" height="60" as="geometry" />
        </mxCell>
        <mxCell id="ew4b3XNnfiUMwKwyRIX6-18" value="Pertenece" style="shape=rhombus;perimeter=rhombusPerimeter;whiteSpace=wrap;html=1;align=center;fillColor=#EA6B66;" parent="1" vertex="1">
          <mxGeometry x="170" y="290" width="120" height="60" as="geometry" />
        </mxCell>
        <mxCell id="jRTE80DAgVs_Ja9fbaa8-7" value="" style="endArrow=none;html=1;rounded=0;exitX=1;exitY=0.5;exitDx=0;exitDy=0;" parent="1" source="ew4b3XNnfiUMwKwyRIX6-4" target="ew4b3XNnfiUMwKwyRIX6-10" edge="1">
          <mxGeometry width="50" height="50" relative="1" as="geometry">
            <mxPoint x="-270" y="490" as="sourcePoint" />
            <mxPoint x="-270" y="360" as="targetPoint" />
          </mxGeometry>
        </mxCell>
        <mxCell id="jRTE80DAgVs_Ja9fbaa8-8" value="" style="endArrow=none;html=1;rounded=0;exitX=1;exitY=0.5;exitDx=0;exitDy=0;" parent="1" edge="1">
          <mxGeometry width="50" height="50" relative="1" as="geometry">
            <mxPoint x="35" y="499.5" as="sourcePoint" />
            <mxPoint x="180" y="499.5" as="targetPoint" />
          </mxGeometry>
        </mxCell>
        <mxCell id="jRTE80DAgVs_Ja9fbaa8-9" value="" style="endArrow=none;html=1;rounded=0;exitX=1;exitY=0.5;exitDx=0;exitDy=0;entryX=0;entryY=0.5;entryDx=0;entryDy=0;" parent="1" target="5aakEDVAAHbc9MkIzyxL-103" edge="1">
          <mxGeometry width="50" height="50" relative="1" as="geometry">
            <mxPoint x="280" y="499.5" as="sourcePoint" />
            <mxPoint x="425" y="499.5" as="targetPoint" />
            <Array as="points">
              <mxPoint x="450" y="500" />
            </Array>
          </mxGeometry>
        </mxCell>
        <mxCell id="jRTE80DAgVs_Ja9fbaa8-14" value="" style="endArrow=none;html=1;rounded=0;entryX=0.5;entryY=1;entryDx=0;entryDy=0;exitX=0.5;exitY=0;exitDx=0;exitDy=0;" parent="1" edge="1">
          <mxGeometry width="50" height="50" relative="1" as="geometry">
            <mxPoint x="-280" y="650" as="sourcePoint" />
            <mxPoint x="-280" y="520" as="targetPoint" />
          </mxGeometry>
        </mxCell>
        <mxCell id="jRTE80DAgVs_Ja9fbaa8-18" value="" style="endArrow=none;html=1;rounded=0;exitX=1;exitY=0.5;exitDx=0;exitDy=0;" parent="1" edge="1">
          <mxGeometry width="50" height="50" relative="1" as="geometry">
            <mxPoint x="790" y="499.5" as="sourcePoint" />
            <mxPoint x="935" y="499.5" as="targetPoint" />
          </mxGeometry>
        </mxCell>
        <mxCell id="jRTE80DAgVs_Ja9fbaa8-19" value="" style="endArrow=none;html=1;rounded=0;exitX=1;exitY=0.5;exitDx=0;exitDy=0;entryX=0;entryY=0.5;entryDx=0;entryDy=0;" parent="1" target="ew4b3XNnfiUMwKwyRIX6-8" edge="1">
          <mxGeometry width="50" height="50" relative="1" as="geometry">
            <mxPoint x="1050" y="499.5" as="sourcePoint" />
            <mxPoint x="1180" y="500" as="targetPoint" />
          </mxGeometry>
        </mxCell>
        <mxCell id="5aakEDVAAHbc9MkIzyxL-1" value="ID_jugador" style="ellipse;whiteSpace=wrap;html=1;align=center;fontStyle=4;fillColor=#FFD966;" parent="1" vertex="1">
          <mxGeometry x="-590" y="540" width="100" height="40" as="geometry" />
        </mxCell>
        <mxCell id="5aakEDVAAHbc9MkIzyxL-5" value="Nombre" style="ellipse;whiteSpace=wrap;html=1;align=center;fillColor=#FFD966;" parent="1" vertex="1">
          <mxGeometry x="-525" y="600" width="100" height="40" as="geometry" />
        </mxCell>
        <mxCell id="5aakEDVAAHbc9MkIzyxL-12" value="Estadísticas de jugador" style="whiteSpace=wrap;html=1;align=center;fillColor=#97D077;" parent="1" vertex="1">
          <mxGeometry x="-330" y="840" width="100" height="40" as="geometry" />
        </mxCell>
        <mxCell id="5aakEDVAAHbc9MkIzyxL-13" value="Posición" style="ellipse;whiteSpace=wrap;html=1;align=center;fillColor=#FFD966;" parent="1" vertex="1">
          <mxGeometry x="-600" y="430" width="100" height="40" as="geometry" />
        </mxCell>
        <mxCell id="5aakEDVAAHbc9MkIzyxL-14" value="Fecha de nacimiento" style="ellipse;whiteSpace=wrap;html=1;align=center;fillColor=#FFD966;" parent="1" vertex="1">
          <mxGeometry x="-460" y="330" width="100" height="40" as="geometry" />
        </mxCell>
        <mxCell id="5aakEDVAAHbc9MkIzyxL-15" value="Dorsal" style="ellipse;whiteSpace=wrap;html=1;align=center;fillColor=#FFD966;" parent="1" vertex="1">
          <mxGeometry x="-550" y="370" width="100" height="40" as="geometry" />
        </mxCell>
        <mxCell id="5aakEDVAAHbc9MkIzyxL-16" value="" style="endArrow=none;html=1;rounded=0;exitX=0.19;exitY=1;exitDx=0;exitDy=0;entryX=0.5;entryY=0;entryDx=0;entryDy=0;exitPerimeter=0;" parent="1" source="ew4b3XNnfiUMwKwyRIX6-4" target="5aakEDVAAHbc9MkIzyxL-5" edge="1">
          <mxGeometry width="50" height="50" relative="1" as="geometry">
            <mxPoint x="-252.5" y="529" as="sourcePoint" />
            <mxPoint x="-107.5" y="529" as="targetPoint" />
          </mxGeometry>
        </mxCell>
        <mxCell id="5aakEDVAAHbc9MkIzyxL-17" value="" style="endArrow=none;html=1;rounded=0;exitX=0.25;exitY=1;exitDx=0;exitDy=0;entryX=0.5;entryY=0;entryDx=0;entryDy=0;" parent="1" source="ew4b3XNnfiUMwKwyRIX6-4" target="5aakEDVAAHbc9MkIzyxL-26" edge="1">
          <mxGeometry width="50" height="50" relative="1" as="geometry">
            <mxPoint x="-270" y="530" as="sourcePoint" />
            <mxPoint x="-180" y="580" as="targetPoint" />
          </mxGeometry>
        </mxCell>
        <mxCell id="5aakEDVAAHbc9MkIzyxL-18" value="" style="endArrow=none;html=1;rounded=0;exitX=0;exitY=1;exitDx=0;exitDy=0;entryX=1;entryY=0;entryDx=0;entryDy=0;" parent="1" source="ew4b3XNnfiUMwKwyRIX6-4" target="5aakEDVAAHbc9MkIzyxL-1" edge="1">
          <mxGeometry width="50" height="50" relative="1" as="geometry">
            <mxPoint x="-260" y="540" as="sourcePoint" />
            <mxPoint x="-310" y="600" as="targetPoint" />
          </mxGeometry>
        </mxCell>
        <mxCell id="5aakEDVAAHbc9MkIzyxL-19" value="" style="endArrow=none;html=1;rounded=0;exitX=0;exitY=0.5;exitDx=0;exitDy=0;entryX=1;entryY=0.5;entryDx=0;entryDy=0;" parent="1" source="ew4b3XNnfiUMwKwyRIX6-4" edge="1">
          <mxGeometry width="50" height="50" relative="1" as="geometry">
            <mxPoint x="-320" y="530" as="sourcePoint" />
            <mxPoint x="-500" y="500" as="targetPoint" />
          </mxGeometry>
        </mxCell>
        <mxCell id="5aakEDVAAHbc9MkIzyxL-20" value="" style="endArrow=none;html=1;rounded=0;exitX=0;exitY=0.25;exitDx=0;exitDy=0;entryX=1;entryY=0.5;entryDx=0;entryDy=0;" parent="1" source="ew4b3XNnfiUMwKwyRIX6-4" target="5aakEDVAAHbc9MkIzyxL-13" edge="1">
          <mxGeometry width="50" height="50" relative="1" as="geometry">
            <mxPoint x="-320" y="510" as="sourcePoint" />
            <mxPoint x="-450" y="540" as="targetPoint" />
          </mxGeometry>
        </mxCell>
        <mxCell id="5aakEDVAAHbc9MkIzyxL-21" value="" style="endArrow=none;html=1;rounded=0;exitX=0;exitY=0;exitDx=0;exitDy=0;entryX=1;entryY=1;entryDx=0;entryDy=0;" parent="1" source="ew4b3XNnfiUMwKwyRIX6-4" target="5aakEDVAAHbc9MkIzyxL-15" edge="1">
          <mxGeometry width="50" height="50" relative="1" as="geometry">
            <mxPoint x="-320" y="500" as="sourcePoint" />
            <mxPoint x="-500" y="480" as="targetPoint" />
          </mxGeometry>
        </mxCell>
        <mxCell id="5aakEDVAAHbc9MkIzyxL-22" value="" style="endArrow=none;html=1;rounded=0;exitX=0.25;exitY=0;exitDx=0;exitDy=0;entryX=1;entryY=1;entryDx=0;entryDy=0;" parent="1" source="ew4b3XNnfiUMwKwyRIX6-4" target="5aakEDVAAHbc9MkIzyxL-14" edge="1">
          <mxGeometry width="50" height="50" relative="1" as="geometry">
            <mxPoint x="-320" y="490" as="sourcePoint" />
            <mxPoint x="-505" y="434" as="targetPoint" />
          </mxGeometry>
        </mxCell>
        <mxCell id="5aakEDVAAHbc9MkIzyxL-23" value="" style="endArrow=none;html=1;rounded=0;entryX=0.5;entryY=1;entryDx=0;entryDy=0;exitX=0.5;exitY=0;exitDx=0;exitDy=0;" parent="1" edge="1">
          <mxGeometry width="50" height="50" relative="1" as="geometry">
            <mxPoint x="-280.5" y="840" as="sourcePoint" />
            <mxPoint x="-280.5" y="710" as="targetPoint" />
          </mxGeometry>
        </mxCell>
        <mxCell id="5aakEDVAAHbc9MkIzyxL-24" value="Tiene" style="shape=rhombus;perimeter=rhombusPerimeter;whiteSpace=wrap;html=1;align=center;fillColor=#EA6B66;" parent="1" vertex="1">
          <mxGeometry x="-340" y="650" width="120" height="60" as="geometry" />
        </mxCell>
        <mxCell id="5aakEDVAAHbc9MkIzyxL-26" value="Apellidos" style="ellipse;whiteSpace=wrap;html=1;align=center;fillColor=#FFD966;" parent="1" vertex="1">
          <mxGeometry x="-425" y="630" width="100" height="40" as="geometry" />
        </mxCell>
        <mxCell id="5aakEDVAAHbc9MkIzyxL-28" value="Tiene" style="shape=rhombus;perimeter=rhombusPerimeter;whiteSpace=wrap;html=1;align=center;fillColor=#EA6B66;" parent="1" vertex="1">
          <mxGeometry x="170" y="650" width="120" height="60" as="geometry" />
        </mxCell>
        <mxCell id="5aakEDVAAHbc9MkIzyxL-29" value="Estadística de equipo" style="whiteSpace=wrap;html=1;align=center;fillColor=#97D077;" parent="1" vertex="1">
          <mxGeometry x="180" y="840" width="100" height="40" as="geometry" />
        </mxCell>
        <mxCell id="5aakEDVAAHbc9MkIzyxL-31" value="" style="endArrow=none;html=1;rounded=0;entryX=0.5;entryY=1;entryDx=0;entryDy=0;exitX=0.5;exitY=0;exitDx=0;exitDy=0;" parent="1" edge="1">
          <mxGeometry width="50" height="50" relative="1" as="geometry">
            <mxPoint x="229" y="840" as="sourcePoint" />
            <mxPoint x="229" y="710" as="targetPoint" />
          </mxGeometry>
        </mxCell>
        <mxCell id="5aakEDVAAHbc9MkIzyxL-34" value="Estadio" style="ellipse;whiteSpace=wrap;html=1;align=center;fillColor=#FFD966;" parent="1" vertex="1">
          <mxGeometry x="50" y="400" width="100" height="40" as="geometry" />
        </mxCell>
        <mxCell id="5aakEDVAAHbc9MkIzyxL-35" value="Fecha de fundación" style="ellipse;whiteSpace=wrap;html=1;align=center;fillColor=#FFD966;" parent="1" vertex="1">
          <mxGeometry x="340" y="450" width="100" height="40" as="geometry" />
        </mxCell>
        <mxCell id="5aakEDVAAHbc9MkIzyxL-36" value="Logo" style="ellipse;whiteSpace=wrap;html=1;align=center;fillColor=#FFD966;" parent="1" vertex="1">
          <mxGeometry x="350" y="390" width="100" height="40" as="geometry" />
        </mxCell>
        <mxCell id="5aakEDVAAHbc9MkIzyxL-37" value="Capacidad" style="ellipse;whiteSpace=wrap;html=1;align=center;fillColor=#FFD966;" parent="1" vertex="1">
          <mxGeometry x="35" y="330" width="100" height="40" as="geometry" />
        </mxCell>
        <mxCell id="5aakEDVAAHbc9MkIzyxL-38" value="Dirección" style="ellipse;whiteSpace=wrap;html=1;align=center;fillColor=#FFD966;" parent="1" vertex="1">
          <mxGeometry x="-65" y="380" width="100" height="40" as="geometry" />
        </mxCell>
        <mxCell id="5aakEDVAAHbc9MkIzyxL-40" value="" style="endArrow=none;html=1;rounded=0;exitX=0.25;exitY=0;exitDx=0;exitDy=0;entryX=1;entryY=0.5;entryDx=0;entryDy=0;" parent="1" source="ew4b3XNnfiUMwKwyRIX6-1" target="5aakEDVAAHbc9MkIzyxL-34" edge="1">
          <mxGeometry width="50" height="50" relative="1" as="geometry">
            <mxPoint x="190" y="490" as="sourcePoint" />
            <mxPoint x="160" y="480" as="targetPoint" />
          </mxGeometry>
        </mxCell>
        <mxCell id="5aakEDVAAHbc9MkIzyxL-41" value="" style="endArrow=none;html=1;rounded=0;exitX=0.5;exitY=0;exitDx=0;exitDy=0;entryX=0.5;entryY=1;entryDx=0;entryDy=0;" parent="1" source="5aakEDVAAHbc9MkIzyxL-34" target="5aakEDVAAHbc9MkIzyxL-37" edge="1">
          <mxGeometry width="50" height="50" relative="1" as="geometry">
            <mxPoint x="215" y="490" as="sourcePoint" />
            <mxPoint x="160" y="430" as="targetPoint" />
          </mxGeometry>
        </mxCell>
        <mxCell id="5aakEDVAAHbc9MkIzyxL-42" value="" style="endArrow=none;html=1;rounded=0;exitX=0;exitY=0;exitDx=0;exitDy=0;entryX=1;entryY=0.5;entryDx=0;entryDy=0;" parent="1" source="5aakEDVAAHbc9MkIzyxL-34" target="5aakEDVAAHbc9MkIzyxL-38" edge="1">
          <mxGeometry width="50" height="50" relative="1" as="geometry">
            <mxPoint x="215" y="490" as="sourcePoint" />
            <mxPoint x="160" y="430" as="targetPoint" />
          </mxGeometry>
        </mxCell>
        <mxCell id="5aakEDVAAHbc9MkIzyxL-44" value="" style="endArrow=none;html=1;rounded=0;exitX=1;exitY=0;exitDx=0;exitDy=0;entryX=0;entryY=0.5;entryDx=0;entryDy=0;" parent="1" source="ew4b3XNnfiUMwKwyRIX6-1" target="5aakEDVAAHbc9MkIzyxL-36" edge="1">
          <mxGeometry width="50" height="50" relative="1" as="geometry">
            <mxPoint x="265" y="490" as="sourcePoint" />
            <mxPoint x="290" y="380" as="targetPoint" />
          </mxGeometry>
        </mxCell>
        <mxCell id="5aakEDVAAHbc9MkIzyxL-45" value="" style="endArrow=none;html=1;rounded=0;exitX=1;exitY=0.25;exitDx=0;exitDy=0;entryX=0;entryY=0.5;entryDx=0;entryDy=0;" parent="1" source="ew4b3XNnfiUMwKwyRIX6-1" target="5aakEDVAAHbc9MkIzyxL-35" edge="1">
          <mxGeometry width="50" height="50" relative="1" as="geometry">
            <mxPoint x="290" y="490" as="sourcePoint" />
            <mxPoint x="299" y="438" as="targetPoint" />
          </mxGeometry>
        </mxCell>
        <mxCell id="5aakEDVAAHbc9MkIzyxL-46" value="ID EstadisticaJugador" style="ellipse;whiteSpace=wrap;html=1;align=center;fontStyle=4;fillColor=#FFD966;" parent="1" vertex="1">
          <mxGeometry x="-510" y="840" width="130" height="40" as="geometry" />
        </mxCell>
        <mxCell id="5aakEDVAAHbc9MkIzyxL-47" value="Tarjetas&amp;nbsp;&lt;br&gt;amarillas" style="ellipse;whiteSpace=wrap;html=1;align=center;fillColor=#FFD966;" parent="1" vertex="1">
          <mxGeometry x="-500" y="900" width="100" height="40" as="geometry" />
        </mxCell>
        <mxCell id="5aakEDVAAHbc9MkIzyxL-48" value="Tarjetas&lt;br&gt;rojas" style="ellipse;whiteSpace=wrap;html=1;align=center;fillColor=#FFD966;" parent="1" vertex="1">
          <mxGeometry x="-475" y="950" width="100" height="40" as="geometry" />
        </mxCell>
        <mxCell id="5aakEDVAAHbc9MkIzyxL-49" value="Minutos&lt;br&gt;jugados" style="ellipse;whiteSpace=wrap;html=1;align=center;fillColor=#FFD966;" parent="1" vertex="1">
          <mxGeometry x="-270" y="970" width="100" height="40" as="geometry" />
        </mxCell>
        <mxCell id="5aakEDVAAHbc9MkIzyxL-50" value="Asistencias" style="ellipse;whiteSpace=wrap;html=1;align=center;fillColor=#FFD966;" parent="1" vertex="1">
          <mxGeometry x="-140" y="900" width="100" height="40" as="geometry" />
        </mxCell>
        <mxCell id="5aakEDVAAHbc9MkIzyxL-51" value="Goles" style="ellipse;whiteSpace=wrap;html=1;align=center;fillColor=#FFD966;" parent="1" vertex="1">
          <mxGeometry x="-180" y="950" width="100" height="40" as="geometry" />
        </mxCell>
        <mxCell id="5aakEDVAAHbc9MkIzyxL-52" value="" style="endArrow=none;html=1;rounded=0;exitX=0;exitY=0.5;exitDx=0;exitDy=0;entryX=1;entryY=0.5;entryDx=0;entryDy=0;" parent="1" source="5aakEDVAAHbc9MkIzyxL-12" target="5aakEDVAAHbc9MkIzyxL-46" edge="1">
          <mxGeometry width="50" height="50" relative="1" as="geometry">
            <mxPoint x="-295" y="530" as="sourcePoint" />
            <mxPoint x="-365" y="640" as="targetPoint" />
          </mxGeometry>
        </mxCell>
        <mxCell id="5aakEDVAAHbc9MkIzyxL-53" value="" style="endArrow=none;html=1;rounded=0;exitX=0;exitY=1;exitDx=0;exitDy=0;entryX=1;entryY=0.5;entryDx=0;entryDy=0;" parent="1" source="5aakEDVAAHbc9MkIzyxL-12" target="5aakEDVAAHbc9MkIzyxL-47" edge="1">
          <mxGeometry width="50" height="50" relative="1" as="geometry">
            <mxPoint x="-295" y="530" as="sourcePoint" />
            <mxPoint x="-365" y="640" as="targetPoint" />
          </mxGeometry>
        </mxCell>
        <mxCell id="5aakEDVAAHbc9MkIzyxL-54" value="" style="endArrow=none;html=1;rounded=0;exitX=0.25;exitY=1;exitDx=0;exitDy=0;entryX=1;entryY=0;entryDx=0;entryDy=0;" parent="1" source="5aakEDVAAHbc9MkIzyxL-12" target="5aakEDVAAHbc9MkIzyxL-48" edge="1">
          <mxGeometry width="50" height="50" relative="1" as="geometry">
            <mxPoint x="-295" y="530" as="sourcePoint" />
            <mxPoint x="-365" y="640" as="targetPoint" />
          </mxGeometry>
        </mxCell>
        <mxCell id="5aakEDVAAHbc9MkIzyxL-55" value="" style="endArrow=none;html=1;rounded=0;exitX=0.75;exitY=1;exitDx=0;exitDy=0;entryX=0.5;entryY=0;entryDx=0;entryDy=0;" parent="1" source="5aakEDVAAHbc9MkIzyxL-12" target="5aakEDVAAHbc9MkIzyxL-49" edge="1">
          <mxGeometry width="50" height="50" relative="1" as="geometry">
            <mxPoint x="-295" y="890" as="sourcePoint" />
            <mxPoint x="-355" y="976" as="targetPoint" />
          </mxGeometry>
        </mxCell>
        <mxCell id="5aakEDVAAHbc9MkIzyxL-56" value="" style="endArrow=none;html=1;rounded=0;exitX=1;exitY=1;exitDx=0;exitDy=0;entryX=0;entryY=0;entryDx=0;entryDy=0;" parent="1" source="5aakEDVAAHbc9MkIzyxL-12" target="5aakEDVAAHbc9MkIzyxL-51" edge="1">
          <mxGeometry width="50" height="50" relative="1" as="geometry">
            <mxPoint x="-285" y="900" as="sourcePoint" />
            <mxPoint x="-345" y="986" as="targetPoint" />
          </mxGeometry>
        </mxCell>
        <mxCell id="5aakEDVAAHbc9MkIzyxL-58" value="" style="endArrow=none;html=1;rounded=0;exitX=1;exitY=0.5;exitDx=0;exitDy=0;entryX=0;entryY=0.5;entryDx=0;entryDy=0;" parent="1" source="5aakEDVAAHbc9MkIzyxL-12" target="5aakEDVAAHbc9MkIzyxL-50" edge="1">
          <mxGeometry width="50" height="50" relative="1" as="geometry">
            <mxPoint x="-275" y="910" as="sourcePoint" />
            <mxPoint x="-335" y="996" as="targetPoint" />
          </mxGeometry>
        </mxCell>
        <mxCell id="5aakEDVAAHbc9MkIzyxL-61" value="Nombre" style="ellipse;whiteSpace=wrap;html=1;align=center;fontStyle=4;fillColor=#FFD966;" parent="1" vertex="1">
          <mxGeometry x="180" y="10" width="100" height="40" as="geometry" />
        </mxCell>
        <mxCell id="5aakEDVAAHbc9MkIzyxL-63" value="Estado" style="ellipse;whiteSpace=wrap;html=1;align=center;fillColor=#FFD966;" parent="1" vertex="1">
          <mxGeometry x="-380" y="970" width="100" height="40" as="geometry" />
        </mxCell>
        <mxCell id="5aakEDVAAHbc9MkIzyxL-64" value="" style="endArrow=none;html=1;rounded=0;exitX=0.5;exitY=1;exitDx=0;exitDy=0;entryX=0.5;entryY=0;entryDx=0;entryDy=0;" parent="1" source="5aakEDVAAHbc9MkIzyxL-12" target="5aakEDVAAHbc9MkIzyxL-63" edge="1">
          <mxGeometry width="50" height="50" relative="1" as="geometry">
            <mxPoint x="-245" y="890" as="sourcePoint" />
            <mxPoint x="-210" y="980" as="targetPoint" />
          </mxGeometry>
        </mxCell>
        <mxCell id="5aakEDVAAHbc9MkIzyxL-65" value="Código EstadisticaEquipo" style="ellipse;whiteSpace=wrap;html=1;align=center;fontStyle=4;fillColor=#FFD966;" parent="1" vertex="1">
          <mxGeometry x="-40" y="840" width="130" height="40" as="geometry" />
        </mxCell>
        <mxCell id="5aakEDVAAHbc9MkIzyxL-66" value="Partidos&lt;br&gt;ganados" style="ellipse;whiteSpace=wrap;html=1;align=center;fillColor=#FFD966;" parent="1" vertex="1">
          <mxGeometry x="10" y="990" width="100" height="40" as="geometry" />
        </mxCell>
        <mxCell id="5aakEDVAAHbc9MkIzyxL-67" value="Partidos&lt;br&gt;empatados" style="ellipse;whiteSpace=wrap;html=1;align=center;fillColor=#FFD966;" parent="1" vertex="1">
          <mxGeometry x="135" y="1020" width="100" height="40" as="geometry" />
        </mxCell>
        <mxCell id="5aakEDVAAHbc9MkIzyxL-68" value="Partidos&lt;br&gt;perdidos" style="ellipse;whiteSpace=wrap;html=1;align=center;fillColor=#FFD966;" parent="1" vertex="1">
          <mxGeometry x="230" y="1010" width="100" height="40" as="geometry" />
        </mxCell>
        <mxCell id="5aakEDVAAHbc9MkIzyxL-69" value="Puntos" style="ellipse;whiteSpace=wrap;html=1;align=center;fillColor=#FFD966;" parent="1" vertex="1">
          <mxGeometry x="320" y="960" width="100" height="40" as="geometry" />
        </mxCell>
        <mxCell id="5aakEDVAAHbc9MkIzyxL-70" value="" style="endArrow=none;html=1;rounded=0;exitX=0.5;exitY=0;exitDx=0;exitDy=0;entryX=0;entryY=1;entryDx=0;entryDy=0;" parent="1" source="5aakEDVAAHbc9MkIzyxL-66" target="5aakEDVAAHbc9MkIzyxL-29" edge="1">
          <mxGeometry width="50" height="50" relative="1" as="geometry">
            <mxPoint x="-220" y="870" as="sourcePoint" />
            <mxPoint x="-130" y="930" as="targetPoint" />
          </mxGeometry>
        </mxCell>
        <mxCell id="5aakEDVAAHbc9MkIzyxL-71" value="" style="endArrow=none;html=1;rounded=0;exitX=0.5;exitY=0;exitDx=0;exitDy=0;entryX=0.33;entryY=0.975;entryDx=0;entryDy=0;entryPerimeter=0;" parent="1" source="5aakEDVAAHbc9MkIzyxL-67" target="5aakEDVAAHbc9MkIzyxL-29" edge="1">
          <mxGeometry width="50" height="50" relative="1" as="geometry">
            <mxPoint x="20" y="960" as="sourcePoint" />
            <mxPoint x="80" y="890" as="targetPoint" />
          </mxGeometry>
        </mxCell>
        <mxCell id="5aakEDVAAHbc9MkIzyxL-72" value="" style="endArrow=none;html=1;rounded=0;exitX=0.5;exitY=0;exitDx=0;exitDy=0;entryX=0.75;entryY=1;entryDx=0;entryDy=0;" parent="1" source="5aakEDVAAHbc9MkIzyxL-68" target="5aakEDVAAHbc9MkIzyxL-29" edge="1">
          <mxGeometry width="50" height="50" relative="1" as="geometry">
            <mxPoint x="70" y="1030" as="sourcePoint" />
            <mxPoint x="140" y="870" as="targetPoint" />
          </mxGeometry>
        </mxCell>
        <mxCell id="5aakEDVAAHbc9MkIzyxL-73" value="" style="endArrow=none;html=1;rounded=0;exitX=0.5;exitY=0;exitDx=0;exitDy=0;entryX=1;entryY=1;entryDx=0;entryDy=0;" parent="1" source="5aakEDVAAHbc9MkIzyxL-69" target="5aakEDVAAHbc9MkIzyxL-29" edge="1">
          <mxGeometry width="50" height="50" relative="1" as="geometry">
            <mxPoint x="190" y="1030" as="sourcePoint" />
            <mxPoint x="146" y="888" as="targetPoint" />
          </mxGeometry>
        </mxCell>
        <mxCell id="5aakEDVAAHbc9MkIzyxL-74" value="" style="endArrow=none;html=1;rounded=0;exitX=1;exitY=0.5;exitDx=0;exitDy=0;entryX=0;entryY=0.5;entryDx=0;entryDy=0;" parent="1" source="5aakEDVAAHbc9MkIzyxL-65" target="5aakEDVAAHbc9MkIzyxL-29" edge="1">
          <mxGeometry width="50" height="50" relative="1" as="geometry">
            <mxPoint x="20" y="960" as="sourcePoint" />
            <mxPoint x="80" y="890" as="targetPoint" />
          </mxGeometry>
        </mxCell>
        <mxCell id="5aakEDVAAHbc9MkIzyxL-75" value="ID Partido" style="ellipse;whiteSpace=wrap;html=1;align=center;fontStyle=4;fillColor=#FFD966;" parent="1" vertex="1">
          <mxGeometry x="770" y="570" width="100" height="40" as="geometry" />
        </mxCell>
        <mxCell id="5aakEDVAAHbc9MkIzyxL-78" value="Resultado" style="ellipse;whiteSpace=wrap;html=1;align=center;fillColor=#FFD966;" parent="1" vertex="1">
          <mxGeometry x="610" y="570" width="100" height="40" as="geometry" />
        </mxCell>
        <mxCell id="5aakEDVAAHbc9MkIzyxL-81" value="" style="endArrow=none;html=1;rounded=0;entryX=0;entryY=1;entryDx=0;entryDy=0;exitX=0.5;exitY=0;exitDx=0;exitDy=0;" parent="1" source="5aakEDVAAHbc9MkIzyxL-78" target="ew4b3XNnfiUMwKwyRIX6-5" edge="1">
          <mxGeometry width="50" height="50" relative="1" as="geometry">
            <mxPoint x="495" y="480" as="sourcePoint" />
            <mxPoint x="495" y="420" as="targetPoint" />
          </mxGeometry>
        </mxCell>
        <mxCell id="5aakEDVAAHbc9MkIzyxL-82" value="" style="endArrow=none;html=1;rounded=0;entryX=1;entryY=1;entryDx=0;entryDy=0;exitX=0.5;exitY=0;exitDx=0;exitDy=0;" parent="1" source="5aakEDVAAHbc9MkIzyxL-75" target="ew4b3XNnfiUMwKwyRIX6-5" edge="1">
          <mxGeometry width="50" height="50" relative="1" as="geometry">
            <mxPoint x="640" y="560" as="sourcePoint" />
            <mxPoint x="700" y="530" as="targetPoint" />
          </mxGeometry>
        </mxCell>
        <mxCell id="5aakEDVAAHbc9MkIzyxL-83" value="Nombre de Equipo" style="ellipse;whiteSpace=wrap;html=1;align=center;fontStyle=4;fillColor=#FFD966;" parent="1" vertex="1">
          <mxGeometry x="310" y="330" width="100" height="40" as="geometry" />
        </mxCell>
        <mxCell id="5aakEDVAAHbc9MkIzyxL-84" value="" style="endArrow=none;html=1;rounded=0;exitX=0.75;exitY=0;exitDx=0;exitDy=0;entryX=0;entryY=1;entryDx=0;entryDy=0;" parent="1" source="ew4b3XNnfiUMwKwyRIX6-1" target="5aakEDVAAHbc9MkIzyxL-83" edge="1">
          <mxGeometry width="50" height="50" relative="1" as="geometry">
            <mxPoint x="290" y="490" as="sourcePoint" />
            <mxPoint x="300" y="430" as="targetPoint" />
          </mxGeometry>
        </mxCell>
        <mxCell id="5aakEDVAAHbc9MkIzyxL-85" value="Evento rel." style="ellipse;whiteSpace=wrap;html=1;align=center;fillColor=#FFD966;" parent="1" vertex="1">
          <mxGeometry x="690" y="930" width="100" height="40" as="geometry" />
        </mxCell>
        <mxCell id="5aakEDVAAHbc9MkIzyxL-86" value="Minuto" style="ellipse;whiteSpace=wrap;html=1;align=center;fillColor=#FFD966;" parent="1" vertex="1">
          <mxGeometry x="830" y="920" width="100" height="40" as="geometry" />
        </mxCell>
        <mxCell id="5aakEDVAAHbc9MkIzyxL-87" value="Código&lt;br&gt;Estadística&lt;br&gt;de Partido" style="ellipse;whiteSpace=wrap;html=1;align=center;fontStyle=4;fillColor=#FFD966;" parent="1" vertex="1">
          <mxGeometry x="560" y="910" width="110" height="50" as="geometry" />
        </mxCell>
        <mxCell id="5aakEDVAAHbc9MkIzyxL-91" value="ID Arbitro" style="ellipse;whiteSpace=wrap;html=1;align=center;fontStyle=4;fillColor=#FFD966;" parent="1" vertex="1">
          <mxGeometry x="500" y="60" width="100" height="40" as="geometry" />
        </mxCell>
        <mxCell id="5aakEDVAAHbc9MkIzyxL-92" value="Nombre" style="ellipse;whiteSpace=wrap;html=1;align=center;fillColor=#FFD966;" parent="1" vertex="1">
          <mxGeometry x="680" y="20" width="100" height="40" as="geometry" />
        </mxCell>
        <mxCell id="5aakEDVAAHbc9MkIzyxL-93" value="Apellidos" style="ellipse;whiteSpace=wrap;html=1;align=center;fillColor=#FFD966;" parent="1" vertex="1">
          <mxGeometry x="820" y="40" width="100" height="40" as="geometry" />
        </mxCell>
        <mxCell id="5aakEDVAAHbc9MkIzyxL-95" value="Tipo de árbitro" style="ellipse;whiteSpace=wrap;html=1;align=center;fillColor=#FFD966;" parent="1" vertex="1">
          <mxGeometry x="930" y="120" width="100" height="40" as="geometry" />
        </mxCell>
        <mxCell id="5aakEDVAAHbc9MkIzyxL-96" value="Categoría" style="ellipse;whiteSpace=wrap;html=1;align=center;fillColor=#FFD966;" parent="1" vertex="1">
          <mxGeometry x="500" y="140" width="100" height="40" as="geometry" />
        </mxCell>
        <mxCell id="5aakEDVAAHbc9MkIzyxL-103" value="Juega" style="shape=rhombus;perimeter=rhombusPerimeter;whiteSpace=wrap;html=1;align=center;fillColor=#EA6B66;" parent="1" vertex="1">
          <mxGeometry x="450" y="470" width="120" height="60" as="geometry" />
        </mxCell>
        <mxCell id="5aakEDVAAHbc9MkIzyxL-108" value="" style="endArrow=none;html=1;rounded=0;" parent="1" edge="1">
          <mxGeometry width="50" height="50" relative="1" as="geometry">
            <mxPoint x="570" y="500" as="sourcePoint" />
            <mxPoint x="690" y="500" as="targetPoint" />
          </mxGeometry>
        </mxCell>
        <mxCell id="5aakEDVAAHbc9MkIzyxL-109" value="Nombre de&amp;nbsp;&lt;br&gt;la fase" style="ellipse;whiteSpace=wrap;html=1;align=center;fontStyle=4;fillColor=#FFD966;" parent="1" vertex="1">
          <mxGeometry x="1190" y="360" width="100" height="40" as="geometry" />
        </mxCell>
        <mxCell id="5aakEDVAAHbc9MkIzyxL-110" value="" style="endArrow=none;html=1;rounded=0;entryX=0.5;entryY=1;entryDx=0;entryDy=0;exitX=0.5;exitY=0;exitDx=0;exitDy=0;" parent="1" source="ew4b3XNnfiUMwKwyRIX6-8" target="5aakEDVAAHbc9MkIzyxL-109" edge="1">
          <mxGeometry width="50" height="50" relative="1" as="geometry">
            <mxPoint x="1240" y="470" as="sourcePoint" />
            <mxPoint x="1210" y="425" as="targetPoint" />
          </mxGeometry>
        </mxCell>
        <mxCell id="5aakEDVAAHbc9MkIzyxL-112" value="Fecha" style="ellipse;whiteSpace=wrap;html=1;align=center;fillColor=#FFD966;" parent="1" vertex="1">
          <mxGeometry x="610" y="400" width="100" height="40" as="geometry" />
        </mxCell>
        <mxCell id="5aakEDVAAHbc9MkIzyxL-113" value="Hora" style="ellipse;whiteSpace=wrap;html=1;align=center;fillColor=#FFD966;" parent="1" vertex="1">
          <mxGeometry x="770" y="400" width="100" height="40" as="geometry" />
        </mxCell>
        <mxCell id="5aakEDVAAHbc9MkIzyxL-114" value="" style="endArrow=none;html=1;rounded=0;entryX=1;entryY=1;entryDx=0;entryDy=0;exitX=0.25;exitY=0;exitDx=0;exitDy=0;" parent="1" source="ew4b3XNnfiUMwKwyRIX6-5" target="5aakEDVAAHbc9MkIzyxL-112" edge="1">
          <mxGeometry width="50" height="50" relative="1" as="geometry">
            <mxPoint x="670" y="580" as="sourcePoint" />
            <mxPoint x="700" y="530" as="targetPoint" />
          </mxGeometry>
        </mxCell>
        <mxCell id="5aakEDVAAHbc9MkIzyxL-115" value="" style="endArrow=none;html=1;rounded=0;entryX=0;entryY=1;entryDx=0;entryDy=0;exitX=0.75;exitY=0;exitDx=0;exitDy=0;" parent="1" source="ew4b3XNnfiUMwKwyRIX6-5" target="5aakEDVAAHbc9MkIzyxL-113" edge="1">
          <mxGeometry width="50" height="50" relative="1" as="geometry">
            <mxPoint x="725" y="490" as="sourcePoint" />
            <mxPoint x="705" y="444" as="targetPoint" />
          </mxGeometry>
        </mxCell>
        <mxCell id="5aakEDVAAHbc9MkIzyxL-118" value="1" style="text;html=1;strokeColor=none;fillColor=none;align=center;verticalAlign=middle;whiteSpace=wrap;rounded=0;" parent="1" vertex="1">
          <mxGeometry x="-290" y="610" width="60" height="30" as="geometry" />
        </mxCell>
        <mxCell id="5aakEDVAAHbc9MkIzyxL-119" value="1" style="text;html=1;strokeColor=none;fillColor=none;align=center;verticalAlign=middle;whiteSpace=wrap;rounded=0;" parent="1" vertex="1">
          <mxGeometry x="-290" y="720" width="60" height="30" as="geometry" />
        </mxCell>
        <mxCell id="5aakEDVAAHbc9MkIzyxL-120" value="1" style="text;html=1;strokeColor=none;fillColor=none;align=center;verticalAlign=middle;whiteSpace=wrap;rounded=0;" parent="1" vertex="1">
          <mxGeometry y="455" width="60" height="30" as="geometry" />
        </mxCell>
        <mxCell id="5aakEDVAAHbc9MkIzyxL-121" value="N" style="text;html=1;strokeColor=none;fillColor=none;align=center;verticalAlign=middle;whiteSpace=wrap;rounded=0;" parent="1" vertex="1">
          <mxGeometry x="-120" y="460" width="60" height="30" as="geometry" />
        </mxCell>
        <mxCell id="5aakEDVAAHbc9MkIzyxL-124" value="1" style="text;html=1;strokeColor=none;fillColor=none;align=center;verticalAlign=middle;whiteSpace=wrap;rounded=0;" parent="1" vertex="1">
          <mxGeometry x="150" y="620" width="60" height="30" as="geometry" />
        </mxCell>
        <mxCell id="5aakEDVAAHbc9MkIzyxL-125" value="1" style="text;html=1;strokeColor=none;fillColor=none;align=center;verticalAlign=middle;whiteSpace=wrap;rounded=0;" parent="1" vertex="1">
          <mxGeometry x="150" y="720" width="60" height="30" as="geometry" />
        </mxCell>
        <mxCell id="5aakEDVAAHbc9MkIzyxL-130" value="N" style="text;html=1;strokeColor=none;fillColor=none;align=center;verticalAlign=middle;whiteSpace=wrap;rounded=0;" parent="1" vertex="1">
          <mxGeometry x="440" y="440" width="60" height="30" as="geometry" />
        </mxCell>
        <mxCell id="5aakEDVAAHbc9MkIzyxL-131" value="M" style="text;html=1;strokeColor=none;fillColor=none;align=center;verticalAlign=middle;whiteSpace=wrap;rounded=0;" parent="1" vertex="1">
          <mxGeometry x="530" y="440" width="60" height="30" as="geometry" />
        </mxCell>
        <mxCell id="5aakEDVAAHbc9MkIzyxL-134" value="N" style="text;html=1;strokeColor=none;fillColor=none;align=center;verticalAlign=middle;whiteSpace=wrap;rounded=0;" parent="1" vertex="1">
          <mxGeometry x="890" y="460" width="60" height="30" as="geometry" />
        </mxCell>
        <mxCell id="5aakEDVAAHbc9MkIzyxL-135" value="1" style="text;html=1;strokeColor=none;fillColor=none;align=center;verticalAlign=middle;whiteSpace=wrap;rounded=0;" parent="1" vertex="1">
          <mxGeometry x="1020" y="460" width="60" height="30" as="geometry" />
        </mxCell>
        <mxCell id="7ER-Fb5Yu5YfMW-zNhF4-1" value="" style="endArrow=none;html=1;rounded=0;entryX=0.5;entryY=1;entryDx=0;entryDy=0;exitX=0.5;exitY=0;exitDx=0;exitDy=0;" parent="1" edge="1">
          <mxGeometry width="50" height="50" relative="1" as="geometry">
            <mxPoint x="739.5" y="650" as="sourcePoint" />
            <mxPoint x="739.5" y="520" as="targetPoint" />
          </mxGeometry>
        </mxCell>
        <mxCell id="7ER-Fb5Yu5YfMW-zNhF4-2" value="Tipo" style="ellipse;whiteSpace=wrap;html=1;align=center;fillColor=#FFD966;" parent="1" vertex="1">
          <mxGeometry x="460" y="580" width="100" height="40" as="geometry" />
        </mxCell>
        <mxCell id="H2BI3htYbBV4YaZZ8zBu-1" value="" style="endArrow=none;html=1;rounded=0;entryX=0.5;entryY=1;entryDx=0;entryDy=0;exitX=0.5;exitY=0;exitDx=0;exitDy=0;" parent="1" edge="1">
          <mxGeometry width="50" height="50" relative="1" as="geometry">
            <mxPoint x="739" y="840" as="sourcePoint" />
            <mxPoint x="739" y="710" as="targetPoint" />
          </mxGeometry>
        </mxCell>
        <mxCell id="H2BI3htYbBV4YaZZ8zBu-2" value="" style="endArrow=none;html=1;rounded=0;exitX=0.445;exitY=-0.06;exitDx=0;exitDy=0;entryX=0;entryY=1;entryDx=0;entryDy=0;exitPerimeter=0;" parent="1" source="5aakEDVAAHbc9MkIzyxL-87" target="ew4b3XNnfiUMwKwyRIX6-3" edge="1">
          <mxGeometry width="50" height="50" relative="1" as="geometry">
            <mxPoint x="660" y="880" as="sourcePoint" />
            <mxPoint x="580" y="810" as="targetPoint" />
          </mxGeometry>
        </mxCell>
        <mxCell id="H2BI3htYbBV4YaZZ8zBu-4" value="" style="endArrow=none;html=1;rounded=0;exitX=0.5;exitY=0;exitDx=0;exitDy=0;entryX=0.5;entryY=1;entryDx=0;entryDy=0;" parent="1" source="7ER-Fb5Yu5YfMW-zNhF4-2" target="5aakEDVAAHbc9MkIzyxL-103" edge="1">
          <mxGeometry width="50" height="50" relative="1" as="geometry">
            <mxPoint x="260" y="960" as="sourcePoint" />
            <mxPoint x="180" y="890" as="targetPoint" />
          </mxGeometry>
        </mxCell>
        <mxCell id="H2BI3htYbBV4YaZZ8zBu-5" value="" style="endArrow=none;html=1;rounded=0;entryX=0.5;entryY=1;entryDx=0;entryDy=0;exitX=0.5;exitY=0;exitDx=0;exitDy=0;" parent="1" edge="1">
          <mxGeometry width="50" height="50" relative="1" as="geometry">
            <mxPoint x="739.5" y="480" as="sourcePoint" />
            <mxPoint x="739.5" y="350" as="targetPoint" />
          </mxGeometry>
        </mxCell>
        <mxCell id="H2BI3htYbBV4YaZZ8zBu-6" value="" style="endArrow=none;html=1;rounded=0;entryX=0.5;entryY=1;entryDx=0;entryDy=0;exitX=0.5;exitY=0;exitDx=0;exitDy=0;" parent="1" edge="1">
          <mxGeometry width="50" height="50" relative="1" as="geometry">
            <mxPoint x="740" y="290" as="sourcePoint" />
            <mxPoint x="740" y="160" as="targetPoint" />
          </mxGeometry>
        </mxCell>
        <mxCell id="H2BI3htYbBV4YaZZ8zBu-7" value="" style="endArrow=none;html=1;rounded=0;entryX=1;entryY=0.5;entryDx=0;entryDy=0;" parent="1" target="5aakEDVAAHbc9MkIzyxL-91" edge="1">
          <mxGeometry width="50" height="50" relative="1" as="geometry">
            <mxPoint x="690" y="125" as="sourcePoint" />
            <mxPoint x="637.5" y="65" as="targetPoint" />
          </mxGeometry>
        </mxCell>
        <mxCell id="H2BI3htYbBV4YaZZ8zBu-8" value="" style="endArrow=none;html=1;rounded=0;exitX=0;exitY=0.5;exitDx=0;exitDy=0;entryX=1;entryY=0.5;entryDx=0;entryDy=0;" parent="1" source="ew4b3XNnfiUMwKwyRIX6-7" target="5aakEDVAAHbc9MkIzyxL-96" edge="1">
          <mxGeometry width="50" height="50" relative="1" as="geometry">
            <mxPoint x="702.5" y="135" as="sourcePoint" />
            <mxPoint x="610" y="90" as="targetPoint" />
          </mxGeometry>
        </mxCell>
        <mxCell id="H2BI3htYbBV4YaZZ8zBu-9" value="" style="endArrow=none;html=1;rounded=0;exitX=0.25;exitY=0;exitDx=0;exitDy=0;entryX=0.5;entryY=1;entryDx=0;entryDy=0;" parent="1" source="ew4b3XNnfiUMwKwyRIX6-7" target="5aakEDVAAHbc9MkIzyxL-92" edge="1">
          <mxGeometry width="50" height="50" relative="1" as="geometry">
            <mxPoint x="700" y="150" as="sourcePoint" />
            <mxPoint x="610" y="170" as="targetPoint" />
          </mxGeometry>
        </mxCell>
        <mxCell id="H2BI3htYbBV4YaZZ8zBu-10" value="" style="endArrow=none;html=1;rounded=0;exitX=0.75;exitY=0;exitDx=0;exitDy=0;entryX=0.5;entryY=1;entryDx=0;entryDy=0;" parent="1" source="ew4b3XNnfiUMwKwyRIX6-7" target="5aakEDVAAHbc9MkIzyxL-93" edge="1">
          <mxGeometry width="50" height="50" relative="1" as="geometry">
            <mxPoint x="725" y="130" as="sourcePoint" />
            <mxPoint x="710" y="75" as="targetPoint" />
          </mxGeometry>
        </mxCell>
        <mxCell id="H2BI3htYbBV4YaZZ8zBu-12" value="" style="endArrow=none;html=1;rounded=0;entryX=0;entryY=0.5;entryDx=0;entryDy=0;" parent="1" source="ew4b3XNnfiUMwKwyRIX6-7" target="5aakEDVAAHbc9MkIzyxL-95" edge="1">
          <mxGeometry width="50" height="50" relative="1" as="geometry">
            <mxPoint x="800" y="140" as="sourcePoint" />
            <mxPoint x="910" y="100" as="targetPoint" />
          </mxGeometry>
        </mxCell>
        <mxCell id="H2BI3htYbBV4YaZZ8zBu-14" value="N" style="text;html=1;strokeColor=none;fillColor=none;align=center;verticalAlign=middle;whiteSpace=wrap;rounded=0;" parent="1" vertex="1">
          <mxGeometry x="760" y="340" width="60" height="30" as="geometry" />
        </mxCell>
        <mxCell id="H2BI3htYbBV4YaZZ8zBu-15" value="M" style="text;html=1;strokeColor=none;fillColor=none;align=center;verticalAlign=middle;whiteSpace=wrap;rounded=0;" parent="1" vertex="1">
          <mxGeometry x="760" y="260" width="60" height="30" as="geometry" />
        </mxCell>
        <mxCell id="H2BI3htYbBV4YaZZ8zBu-16" value="1" style="text;html=1;strokeColor=none;fillColor=none;align=center;verticalAlign=middle;whiteSpace=wrap;rounded=0;" parent="1" vertex="1">
          <mxGeometry x="740" y="620" width="60" height="30" as="geometry" />
        </mxCell>
        <mxCell id="H2BI3htYbBV4YaZZ8zBu-17" value="1" style="text;html=1;strokeColor=none;fillColor=none;align=center;verticalAlign=middle;whiteSpace=wrap;rounded=0;" parent="1" vertex="1">
          <mxGeometry x="740" y="710" width="60" height="30" as="geometry" />
        </mxCell>
        <mxCell id="ZpefBTJQvM_n4xTdvoeH-1" value="" style="endArrow=none;html=1;rounded=0;entryX=0.5;entryY=1;entryDx=0;entryDy=0;exitX=0.5;exitY=0;exitDx=0;exitDy=0;" parent="1" edge="1">
          <mxGeometry width="50" height="50" relative="1" as="geometry">
            <mxPoint x="230" y="480" as="sourcePoint" />
            <mxPoint x="230" y="350" as="targetPoint" />
          </mxGeometry>
        </mxCell>
        <mxCell id="ZpefBTJQvM_n4xTdvoeH-2" value="" style="endArrow=none;html=1;rounded=0;entryX=0.5;entryY=1;entryDx=0;entryDy=0;exitX=0.5;exitY=0;exitDx=0;exitDy=0;" parent="1" edge="1">
          <mxGeometry width="50" height="50" relative="1" as="geometry">
            <mxPoint x="230" y="290" as="sourcePoint" />
            <mxPoint x="230" y="160" as="targetPoint" />
          </mxGeometry>
        </mxCell>
        <mxCell id="ZpefBTJQvM_n4xTdvoeH-3" value="" style="endArrow=none;html=1;rounded=0;exitX=0.5;exitY=1;exitDx=0;exitDy=0;entryX=0.5;entryY=0;entryDx=0;entryDy=0;" parent="1" source="5aakEDVAAHbc9MkIzyxL-61" target="ew4b3XNnfiUMwKwyRIX6-6" edge="1">
          <mxGeometry width="50" height="50" relative="1" as="geometry">
            <mxPoint x="400" y="70" as="sourcePoint" />
            <mxPoint x="310" y="90" as="targetPoint" />
          </mxGeometry>
        </mxCell>
        <mxCell id="ZpefBTJQvM_n4xTdvoeH-4" value="" style="endArrow=none;html=1;rounded=0;entryX=0.5;entryY=1;entryDx=0;entryDy=0;exitX=0.5;exitY=0;exitDx=0;exitDy=0;" parent="1" edge="1">
          <mxGeometry width="50" height="50" relative="1" as="geometry">
            <mxPoint x="230" y="650" as="sourcePoint" />
            <mxPoint x="230" y="520" as="targetPoint" />
          </mxGeometry>
        </mxCell>
        <mxCell id="ZpefBTJQvM_n4xTdvoeH-5" value="N" style="text;html=1;strokeColor=none;fillColor=none;align=center;verticalAlign=middle;whiteSpace=wrap;rounded=0;" parent="1" vertex="1">
          <mxGeometry x="230" y="360" width="60" height="30" as="geometry" />
        </mxCell>
        <mxCell id="ZpefBTJQvM_n4xTdvoeH-6" value="1" style="text;html=1;strokeColor=none;fillColor=none;align=center;verticalAlign=middle;whiteSpace=wrap;rounded=0;" parent="1" vertex="1">
          <mxGeometry x="230" y="260" width="60" height="30" as="geometry" />
        </mxCell>
        <mxCell id="ZpefBTJQvM_n4xTdvoeH-8" value="" style="endArrow=none;html=1;rounded=0;exitX=0.5;exitY=0;exitDx=0;exitDy=0;entryX=0.5;entryY=1;entryDx=0;entryDy=0;" parent="1" source="5aakEDVAAHbc9MkIzyxL-85" target="ew4b3XNnfiUMwKwyRIX6-3" edge="1">
          <mxGeometry width="50" height="50" relative="1" as="geometry">
            <mxPoint x="780" y="950" as="sourcePoint" />
            <mxPoint x="800" y="890" as="targetPoint" />
          </mxGeometry>
        </mxCell>
        <mxCell id="ZpefBTJQvM_n4xTdvoeH-10" value="" style="endArrow=none;html=1;rounded=0;exitX=0;exitY=0;exitDx=0;exitDy=0;entryX=1;entryY=1;entryDx=0;entryDy=0;" parent="1" source="5aakEDVAAHbc9MkIzyxL-86" target="ew4b3XNnfiUMwKwyRIX6-3" edge="1">
          <mxGeometry width="50" height="50" relative="1" as="geometry">
            <mxPoint x="790" y="960" as="sourcePoint" />
            <mxPoint x="810" y="900" as="targetPoint" />
          </mxGeometry>
        </mxCell>
        <mxCell id="ZpefBTJQvM_n4xTdvoeH-11" value="Nacionalidad" style="ellipse;shape=doubleEllipse;margin=3;whiteSpace=wrap;html=1;align=center;fillColor=#FFD966;" parent="1" vertex="1">
          <mxGeometry x="-600" y="480" width="100" height="40" as="geometry" />
        </mxCell>
      </root>
    </mxGraphModel>
  </diagram>
</mxfile>
